<svg width="117" height="40" viewBox="0 0 117 40" fill="none" xmlns="http://www.w3.org/2000/svg">
<path d="M27.6106 29.1579L20.5685 15.6667V30.607H16.668V10.2988H22.0809L27.6689 21.2092L33.2623 10.2988H38.6752V30.607H34.6845V15.6932L27.6106 29.1579Z" fill="#059FFF"/>
<path d="M54.9201 28.7182C53.9887 29.4731 53.0335 30.0245 52.0544 30.3735C51.074 30.7226 49.9821 30.8971 48.7801 30.8971C47.6339 30.8971 46.5592 30.6935 45.5589 30.2889C44.5612 29.8804 43.6976 29.329 42.9692 28.6336C42.2395 27.9355 41.6664 27.1092 41.2498 26.1532C40.8359 25.1947 40.6289 24.1647 40.6289 23.0647C40.6289 21.9792 40.8266 20.9585 41.2233 20.0026C41.6226 19.0441 42.1705 18.2125 42.8684 17.5064C43.5649 16.8017 44.3941 16.2464 45.3573 15.8405C46.3191 15.432 47.3433 15.2271 48.4299 15.2271C49.4979 15.2271 50.4916 15.4359 51.4123 15.8511C52.3357 16.2676 53.1317 16.8335 53.8004 17.5487C54.469 18.2653 54.9917 19.1221 55.3712 20.119C55.7493 21.1132 55.939 22.1921 55.939 23.3556V24.3974H44.6461C44.9141 25.3467 45.4369 26.1109 46.2116 26.6927C46.9891 27.2718 47.9045 27.56 48.9553 27.56C49.6133 27.56 50.2315 27.4542 50.8126 27.2427C51.3964 27.0285 51.8912 26.7284 52.2985 26.3436L54.9201 28.7182ZM48.3397 18.506C47.4296 18.506 46.6442 18.7836 45.9835 19.3363C45.3214 19.8863 44.8651 20.6254 44.6143 21.5522H52.0385C51.7864 20.6637 51.3247 19.9339 50.6534 19.3627C49.9848 18.7915 49.2126 18.506 48.3397 18.506Z" fill="#059FFF"/>
<path d="M68.9457 30.606V29.3579C68.3433 29.8418 67.6734 30.2041 66.9344 30.4474C66.1981 30.6867 65.4326 30.807 64.6365 30.807C63.5712 30.807 62.5669 30.6047 61.6223 30.1988C60.6803 29.7942 59.8618 29.2442 59.1652 28.5488C58.4674 27.8507 57.9195 27.0283 57.5201 26.079C57.1235 25.131 56.9258 24.1156 56.9258 23.0328C56.9258 21.9513 57.1288 20.9359 57.5361 19.9866C57.942 19.0386 58.4939 18.2175 59.1918 17.5221C59.8923 16.824 60.7215 16.278 61.6807 15.8826C62.6425 15.4847 63.6667 15.285 64.7533 15.285C65.4923 15.285 66.2153 15.3882 66.9238 15.5918C67.6309 15.7967 68.285 16.0915 68.8873 16.475V10.2979L72.878 9.42529V30.606H68.9457ZM60.8528 23.0328C60.8528 24.2531 61.2787 25.2897 62.1317 26.1425C62.9875 26.9926 64.0369 27.417 65.2787 27.417C66.0176 27.417 66.6916 27.2927 67.3006 27.0415C67.9122 26.7877 68.4415 26.4281 68.8873 25.9627V20.0765C68.4627 19.6296 67.9334 19.2806 67.3006 19.0293C66.6704 18.7795 65.9964 18.6539 65.2787 18.6539C64.0156 18.6539 62.9609 19.0756 62.1158 19.9178C61.2734 20.7574 60.8528 21.7953 60.8528 23.0328Z" fill="#059FFF"/>
<path d="M77.2401 13.6935C76.6205 13.6935 76.0858 13.4714 75.6374 13.0272C75.1916 12.5803 74.9688 12.0475 74.9688 11.43C74.9688 10.8099 75.1916 10.2771 75.6374 9.83286C76.0858 9.38862 76.6205 9.1665 77.2401 9.1665C77.8623 9.1665 78.3969 9.38862 78.8427 9.83286C79.2885 10.2771 79.5114 10.8099 79.5114 11.43C79.5114 12.0475 79.2885 12.5803 78.8427 13.0272C78.3969 13.4714 77.8623 13.6935 77.2401 13.6935ZM79.2513 15.4916V30.6064H75.2606V15.4916H79.2513Z" fill="#059FFF"/>
<path d="M86.4125 30.8659C84.7846 30.8659 83.4566 30.4362 82.4271 29.5755C81.3976 28.7161 80.8828 27.6002 80.8828 26.2278C80.8828 24.7973 81.4347 23.6761 82.5385 22.8643C83.645 22.0499 85.1707 21.6427 87.113 21.6427C87.7352 21.6427 88.3561 21.6929 88.9757 21.7907C89.5979 21.8859 90.2095 22.0314 90.8118 22.2244V21.1508C90.8118 20.2808 90.5385 19.6224 89.9946 19.1782C89.4533 18.7313 88.6573 18.5065 87.6065 18.5065C86.9657 18.5065 86.2719 18.6097 85.5263 18.8133C84.7793 19.0182 83.9302 19.3315 82.979 19.7546L81.5249 16.8248C82.7057 16.2853 83.8546 15.8808 84.969 15.6084C86.0861 15.3374 87.1899 15.2012 88.2805 15.2012C90.3183 15.2012 91.9024 15.6904 93.0354 16.6661C94.171 17.6432 94.7388 19.0222 94.7388 20.8018V30.6068H90.8118V29.5649C90.171 30.0092 89.4957 30.3371 88.7846 30.5486C88.0762 30.7602 87.2855 30.8659 86.4125 30.8659ZM84.6984 26.1379C84.6984 26.7197 84.9491 27.1798 85.452 27.5183C85.9574 27.8567 86.6274 28.026 87.4632 28.026C88.1213 28.026 88.7262 27.944 89.2782 27.7774C89.8327 27.6121 90.3448 27.3755 90.8118 27.0687V24.8052C90.3262 24.6122 89.8168 24.472 89.2835 24.3874C88.7488 24.3002 88.1903 24.2552 87.6065 24.2552C86.6964 24.2552 85.984 24.4244 85.4679 24.7629C84.9544 25.1014 84.6984 25.5602 84.6984 26.1379Z" fill="#059FFF"/>
<path d="M100.991 9.42529V30.606H97V10.2979L100.991 9.42529Z" fill="#059FFF"/>
</svg>
